<?xml version="1.0" encoding="UTF-8" standalone="no"?>
<!-- Created with Inkscape (http://www.inkscape.org/) -->
<svg id="svg2"
     xmlns="http://www.w3.org/2000/svg"
     height="38" width="142.31" version="1.1"
     xmlns:xlink="http://www.w3.org/1999/xlink"
     viewBox="0 0 142.30592 38"
>
 <defs id="defs8">
  <linearGradient
          id="linearGradient4361">
   <stop id="stop4363" stop-color="#00a1e4" offset="0"/>
   <stop id="stop4365" stop-color="#0072bc" offset="1"/>
  </linearGradient>
  <linearGradient id="linearGradient4285" y2="1025.3" xlink:href="#linearGradient4361" gradientUnits="userSpaceOnUse" x2="599.5" y1="868.23" x1="599.5"/>
 </defs>
 <metadata id="metadata4">

 </metadata>
 <g id="g4303" transform="matrix(.13232 0 0 .13232 -8.2396 -5.347)">
  <g id="g4263" fill="url(#linearGradient4285)" transform="matrix(.78887 0 0 .78887 262.02 -564.19)">
   <path id="path4195" d="m767.93 867.83v0.01 7.6232 11.002 138.81h32.488v-61.431-1.2989h7.0615l32.787 62.734h34.598l-35.786-69.942c2.2977-0.8737 4.5421-1.959 6.7246-3.2543v-0.024c6.573-4.0958 11.856-9.6175 15.73-16.394 1.1233-1.9638 2.0016-3.9602 2.7646-5.946 0.18663-0.3799 0.3801-0.8049 0.53185-1.2157 0.33849-0.9165 0.64919-1.934 0.7862-2.4255 0.48806-1.7685 0.90596-4.0136 1.1521-7.708 0.07-1.1571 0.1021-2.3625 0.099-3.6054v-0.01c0-0.4235 0.0318-0.7411 0.0318-0.9782 0-6.0872-0.93067-11.423-2.6698-16.126v-0.023-0.022c-2.0262-6.0907-5.2266-11.066-10.303-16.18-6.9145-6.9663-16.461-13.587-33.531-13.587h-33.809-10.881-7.7745-0.00042zm32.265 27.985h16.404c7.3825 0.1379 10.776 1.7986 14.386 5.1293 3.8126 3.355 5.7517 8.0341 5.7517 13.662 0 1.5885-0.18697 3.0981-0.47481 4.5452-0.07 0.3421-0.13257 0.7584-0.25282 1.2226v0.034c-0.1818 0.7478-0.32316 1.2212-0.5133 1.6489v0.01c-0.0844 0.194-0.0287 0.063-0.0874 0.1962-0.35392 0.9831-0.76053 1.9718-1.2894 2.9446-1.7364 3.1954-4.105 5.7992-7.0511 7.7306v0.012c-2.9201 1.8233-6.0851 2.7686-9.4019 2.7889h-17.437v-25.374l-0.034-14.48v-0.07z"/>
   <path id="path4541-3" d="m338.45 867.84 50.423 81.531v75.896h32.492v-75.246c16.148-26.354 36.441-59.561 50.272-82.181h-34.798l-31.104 54.215-30.841-54.215h-36.443z"/>
   <path id="path4543-6" d="m486.78 867.84 53.246 157.43h32.148l53.961-157.43h-32.61c-12.342 39.014-25.611 77.759-37.496 116.93-11.901-37.404-24.888-79.469-36.577-116.93h-32.671z"/>
   <path id="path4547-7" d="m260.94 865.67c-44.555 0-80.643 36.134-80.643 80.746 0 44.613 36.087 80.752 80.643 80.752 44.555 0 80.643-36.139 80.643-80.752 0.00049-44.613-36.088-80.747-80.643-80.746zm0 30.073c27.935 0.001 50.613 22.703 50.613 50.673-0.00049 27.97-22.679 50.678-50.613 50.678-27.934-0.001-50.607-22.708-50.608-50.678 0.00062-27.97 22.674-50.673 50.608-50.673z"/>
   <path id="path4549-5" d="m950.94 866.4c-9.2247 0-17.814 1.5884-25.825 4.7592-7.9376 3.142-14.315 8.0095-19.262 14.688-4.8786 6.5862-7.3509 14.846-7.3509 25.008 0 8.382 1.3479 15.354 3.9469 20.959 2.7286 5.699 6.1567 10.211 10.284 13.614 4.3286 3.4955 9.5231 6.7223 15.593 9.6732l0.28958 0.14278v-0.0103l9.7435 4.1962 0.034 0.0103 0.0237 0.0124c5.7664 2.3246 10.355 4.3535 13.781 6.1103 3.5351 1.813 6.4924 4.0679 8.8186 6.7658 2.433 2.8225 3.6814 6.2991 3.6814 10.136 0 6.386-2.4688 11.408-7.2724 14.153-4.4675 2.513-9.8766 3.7257-16.133 3.7257-5.5816 0-10.606-0.75122-15.054-2.2941l-0.3459-0.12056v-0.0422c-4.1243-1.4799-8.4552-3.3747-13.037-5.7504l-0.22123-0.11663-14.76 20.933c0.82571 0.8694 1.8096 1.7751 3.1045 2.7345 4.0901 2.9648 10.159 5.6114 18.162 7.8032l0.0206 0.01h0.0103c8.0398 2.0908 17.401 3.1507 28.083 3.1507 8.7789 0 16.878-1.623 24.357-4.8638 7.4738-3.203 13.504-8.33 18.214-15.52 4.7291-7.175 7.1538-16.432 7.1538-27.926 0-9.3493-1.9532-16.85-5.7404-22.652l-0.0823-0.12868v-0.0103c-3.7989-5.9121-8.2782-10.371-13.455-13.445l-0.21318-0.12662c-5.3426-3.2382-12.253-6.6801-20.742-10.297-5.7934-2.2482-10.352-4.242-13.723-6.0158l-0.27342-0.14475v-0.0504c-3.2568-1.8052-6.0562-4.0879-8.2999-6.8703l-0.11459-0.14073v-0.0607c-2.2595-2.9983-3.38-6.7095-3.38-10.918 0-4.0114 1.9129-7.6022 5.3362-10.365 3.706-3.079 9.6453-4.2928 17.822-4.2928 4.5092 0 8.3462 0.42372 11.638 1.2486v-0.0381l0.57103 0.13671c3.1822 0.75592 6.3201 1.7838 9.4179 3.014l11.41-21.47c-0.45986-0.38377-0.94133-0.77126-1.522-1.1722l-0.0628-0.0443c-3.2328-2.2733-7.8914-4.2236-13.978-5.7243-6.0319-1.5699-12.817-2.3652-20.334-2.3785h-0.31563z"/>
   <path id="path4551-3" d="m89.913 867.84v138.8 10.88 7.747h7.747 10.912 63.287v-27.212h-49.452v-130.21h-32.494z"/>
   <path id="path4553-5" d="m645.15 868.19v7.2664 10.998 120.18 10.88 7.387h7.3871 10.912 71.918v-26.498h-58.443v-45.524h49.363v-26.498h-49.363v-31.827h58.443v-26.368h-71.918-10.912z"/>
   <path id="path4555-6" d="m1019.9 868.19v7.2664 10.998 120.18 10.88 7.387h7.3871 10.912 71.918v-26.498h-58.443v-45.524h49.363v-26.498h-49.363v-31.827h58.443v-26.368h-71.918-10.912z"/>
  </g>
  <g id="g4206" fill="#f5833c" transform="matrix(1.1863 0 0 1.1863 451.61 -63.383)">
   <path id="path4200" d="m40 60v48h8v16h-8v48h48v-8h16v8h48v-48h-8v-16h8v-48h-48v8h-16v-8h-48zm8 8h32v32h-32v-32zm64 0h32v32h-32v-32zm-24 8h16v32h32v16h-32v32h-16v-32h-32v-16h32v-32zm-40 56h32v32h-32v-32zm64 0h32v32h-32v-32z" transform="matrix(1.5992 0 0 1.5992 -392.17 54.089)"/>
   <path id="path4202" d="m128.93 25.443c-3.0661-3.0652-6.6721-4.5557-11.026-4.5557-5.0042 0-8.8162 1.7401-11.658 5.3267l-10.255 13.204-10.257-13.224c-2.8298-3.5704-6.6397-5.3066-11.642-5.3066-4.3537 0-7.9613 1.4905-11.028 4.5557-3.0643 3.065-4.5537 6.6707-4.5537 11.025 0 4.3546 1.4896 7.9604 4.5557 11.026 2.6254 2.6263 5.6369 4.0858 9.2831 4.4648h47.326l0.0404-0.0039c3.5635-0.37509 6.5729-1.8343 9.2024-4.4609 3.0661-3.0663 4.5555-6.6728 4.5555-11.026 0.00024-4.3523-1.4894-7.9592-4.5553-11.025zm-38.364 19.121h-16.462c-2.2352 0-4.1656-0.79544-5.732-2.3628-1.5685-1.5676-2.3628-3.4956-2.3628-5.7322 0-2.2364 0.7943-4.1646 2.3628-5.732 1.5664-1.5673 3.4947-2.3628 5.732-2.3628 2.4174 0 4.39 0.89144 5.8879 2.6741l10.575 13.516zm10.959 0 10.514-13.542c1.4736-1.7564 3.4462-2.6478 5.8655-2.6478 2.2355 0 4.1637 0.7943 5.7302 2.3616 1.5685 1.5685 2.3628 3.4967 2.3628 5.7331 0 2.2366-0.79431 4.1646-2.3628 5.7322-1.5664 1.5673-3.4947 2.3628-5.7302 2.3628h-16.379z" transform="matrix(1.5992 0 0 1.5992 -392.17 54.089)"/>
  </g>
  <g id="text4200" fill="#949494" transform="translate(0,-416)">
   <path id="path4163" d="m358.21 743.04h-25.26v-46.264h5.5599v41.253h19.7v5.0108z"/>
   <path id="path4165" d="m420.63 719.7q0 10.914-5.6286 17.435-5.5599 6.4523-15.101 6.4523-9.4038 0-15.101-6.5209t-5.6972-17.366q0-10.914 5.5599-17.366 5.6286-6.4523 15.17-6.4523 9.747 0 15.238 6.4523 5.5599 6.3836 5.5599 17.366zm-35.693 0q0 8.5801 4.0498 13.591 4.1185 5.0108 10.914 5.0108 7.07 0 10.914-4.9422 3.9125-4.9422 3.9125-13.66 0-8.7174-3.9125-13.66-3.9125-4.9422-10.983-4.9422-7.0014 0-10.983 5.0108-3.9125 4.9422-3.9125 13.591z"/>
   <path id="path4167" d="m462.3 743.04h-5.5599v-17.16l-15.719-29.104h6.4523l3.5007 6.7955q3.5693 6.8641 5.6972 11.188 2.1279 4.3244 2.4711 5.2167l0.34321 0.8237q0.61776-1.716 8.7174-17.229l3.5007-6.7955h6.4523l-15.856 29.035v17.229z"/>
   <path id="path4169" d="m510.39 723.55-0.89234 2.6084h16.405l-0.89234-2.677-7.2073-22.24q-0.82369 2.9516-7.4132 22.308zm-6.5896 19.494h-5.9718l16.131-46.264h7.6878l15.856 46.264h-5.9718l-4.0498-12.149h-19.563l-4.1185 12.149z"/>
   <path id="path4171" d="m585.91 743.04h-25.26v-46.264h5.5599v41.253h19.7v5.0108z"/>
   <path id="path4173" d="m635.29 701.65h-12.493v41.391h-5.5599v-41.391h-12.493v-4.8735h30.545v4.8735z"/>
   <path id="path4175" d="m675.12 743.04h-5.5599v-17.16l-15.719-29.104h6.4523l3.5007 6.7955q3.5693 6.8641 5.6972 11.188 2.1279 4.3244 2.4711 5.2167l0.3432 0.8237q0.61777-1.716 8.7174-17.229l3.5007-6.7955h6.4523l-15.856 29.035v17.229z"/>
   <path id="path4177" d="m778.28 725.47q0 8.9233-4.5303 13.522-4.4617 4.599-12.493 4.599-7.8937 0-12.355-4.4617-4.4617-4.5303-4.4617-13.11v-29.241h5.5599v29.172q0 6.3836 3.0202 9.4038 3.0888 3.0202 8.2369 3.0202 11.463 0 11.463-12.767v-28.829h5.5599v28.692z"/>
   <path id="path4179" d="m809.74 743.04h-5.5599v-46.264h7.0014l11.6 19.494 11.738 20.043q-0.27456-6.6582-0.27456-19.975v-19.563h5.5599v46.264h-7.0014l-11.6-19.357q-3.5007-5.8345-6.4523-10.845-2.9516-5.0794-4.1871-7.276l-1.1669-2.1279q0.34321 7.1387 0.34321 20.112v19.494z"/>
   <path id="path4181" d="m871.84 743.04h-5.5599v-46.264h5.5599v46.264z"/>
   <path id="path4183" d="m918.03 743.04h-7.0014l-15.65-46.264h5.9718l6.0404 18.327 7.2073 22.926q2.677-8.6488 7.4132-22.926l6.1777-18.327h5.9718l-16.131 46.264z"/>
   <path id="path4185" d="m983.14 743.04h-25.809v-46.264h25.466v4.8735h-19.906v15.856h17.572v4.8735h-17.572v15.787h20.249v4.8735z"/>
   <path id="path4187" d="m1019.2 701.58h-6.3836v18.464h7.0013q4.7363 0 7.2074-2.5397 2.5397-2.6084 2.5397-6.6582 0-9.2665-10.365-9.2665zm0.2745 23.201h-6.6581v18.259h-5.56v-46.264h11.6q8.031 0 12.149 3.7753 4.1871 3.7753 4.1871 10.433-0.1372 4.8049-2.5397 8.1683-2.4024 3.3634-6.7954 4.7362l12.149 19.151h-6.6582l-11.326-18.259h-0.5492z"/>
   <path id="path4189" d="m1087.1 730.75q0 6.1091-4.1871 9.4725-4.1871 3.2948-10.777 3.2948-7.276 0-12.355-2.9516v-5.9718q5.0108 3.7753 12.218 3.7753 4.3244 0 6.7955-1.922 2.471-1.922 2.471-5.5599 0-1.5101-0.6177-2.677-0.5492-1.2355-1.922-2.1965-1.3042-1.0296-2.5397-1.6474-1.1669-0.68641-3.2261-1.6474-0.4119-0.20593-1.2356-0.54913-2.9515-1.3042-4.5303-2.1279-1.5101-0.82369-3.638-2.4024-2.0592-1.6474-3.0202-3.7753-0.9609-2.1279-0.9609-4.9422 0-5.9031 4.1871-9.1979 4.2557-3.3634 10.639-3.3634 5.9718 0 10.159 2.1279v5.8345q-4.1871-2.7456-10.022-2.7456-4.1871 0-6.6582 1.9906-2.471 1.922-2.471 5.0794 0 1.6474 0.6177 2.9516 0.6864 1.3042 2.3338 2.4711 1.6474 1.0983 2.8143 1.716 1.1669 0.54913 3.638 1.6474 2.3338 1.0296 3.5693 1.6474 1.2356 0.54913 3.1575 1.8533 1.9906 1.2355 2.9516 2.4711 1.0296 1.1669 1.7846 3.1575 0.8237 1.922 0.8237 4.1871z"/>
   <path id="path4191" d="m1137.5 743.04h-25.809v-46.264h25.466v4.8735h-19.906v15.856h17.572v4.8735h-17.572v15.787h20.249v4.8735z"/>
  </g>
 </g>
</svg>
